<svg
          class="input-svg"
          width="25.22"
          height="28.156"
          viewBox="0 0 25.22 28.156"
        >
          <defs>
            <style>
              .cls-1 {
                fill: #a8a8a8;
                fill-rule: evenodd;
              }
            </style>
          </defs>
          <path
            id="user"
            class="cls-1"
            d="M1351.36,564.963a7.3,7.3,0,1,0-7.3-7.3A7.327,7.327,0,0,0,1351.36,564.963Zm12.54,5.836a6.607,6.607,0,0,0-.74-1.339,9.061,9.061,0,0,0-6.28-3.955,1.324,1.324,0,0,0-.92.223,7.792,7.792,0,0,1-9.19,0,1.189,1.189,0,0,0-.92-0.223,9.019,9.019,0,0,0-6.29,3.955,8.235,8.235,0,0,0-.73,1.339,0.682,0.682,0,0,0,.03.606,15.058,15.058,0,0,0,.86,1.275,12.587,12.587,0,0,0,1.47,1.659c0.45,0.446.96,0.861,1.47,1.275a14.546,14.546,0,0,0,17.35,0,13.306,13.306,0,0,0,1.46-1.275,15.2,15.2,0,0,0,1.47-1.659,10.4,10.4,0,0,0,.86-1.275A0.555,0.555,0,0,0,1363.9,570.8Z"
            transform="translate(-1338.75 -550.344)"
          ></path>
        </svg>